<?xml version="1.0" encoding="UTF-8"?>
<svg id="Layer_1" xmlns="http://www.w3.org/2000/svg" version="1.1" viewBox="0 0 199.4 199.4">
  <!-- Generator: Adobe Illustrator 30.6.0, SVG Export Plug-In . SVG Version: 2.1.4 Build 109)  -->
  <defs>
    <style>
      .st0 {
        fill: #fff;
      }

      .st1 {
        fill: #1e3d47;
      }
    </style>
  </defs>
  <circle class="st1" cx="99.7" cy="99.7" r="99.7"/>
  <path class="st0" d="M187.1,95.8h-.2l-22.9-22.9v-37.7h-37.8l-22.8-22.9-4-3.5-3.6,3.5-22.9,22.9h-37.7v37.8l-22.9,22.8-3.5,3.6,3.5,4,22.9,22.9v37.8h37.8l22.9,22.9,3.6,3.5,4-3.5,22.9-22.9h37.8v-37.8l22.9-22.9,3.5-4-3.5-3.6ZM175.8,103l-19.9,19.9v32.9h-32.9l-19.9,19.9-3.5,3.1-3.2-3.1-19.9-19.9h-32.9v-32.9l-19.9-19.9-3.1-3.5,3.1-3.2,19.9-19.8v-32.9h32.8l19.9-19.9,3.2-3.1,3.5,3.1,19.8,19.9h32.9v32.8l19.9,19.9h.2l3.1,3.2-3.1,3.5Z"/>
</svg>