<?xml version="1.0" encoding="UTF-8"?>
<svg id="Layer_1" xmlns="http://www.w3.org/2000/svg" version="1.1" viewBox="0 0 200.2 200.1">
  <!-- Generator: Adobe Illustrator 30.6.0, SVG Export Plug-In . SVG Version: 2.1.4 Build 109)  -->
  <path d="M196.3,95.8h-.2l-25.2-25.2V29.1h-41.6L104.2,3.9l-4.4-3.9-4,3.9-25.2,25.2H29.1v41.6L3.9,95.8l-3.9,4,3.9,4.4,25.2,25.2v41.6h41.6l25.2,25.2,4,3.9,4.4-3.9,25.2-25.2h41.6v-41.6l25.2-25.2,3.9-4.4-3.9-4ZM183.8,103.7l-21.9,21.9v36.2h-36.2l-21.9,21.9-3.8,3.4-3.5-3.4-21.9-21.9h-36.2v-36.2l-21.9-21.9-3.4-3.8,3.4-3.5,21.9-21.8v-36.2h36.1l21.9-21.9,3.5-3.4,3.8,3.4,21.8,21.9h36.2v36.1l21.9,21.9h.2l3.4,3.5-3.4,3.8Z"/>
</svg>