<?xml version="1.0" encoding="UTF-8"?>
<svg id="PATTERN" xmlns="http://www.w3.org/2000/svg" version="1.1" viewBox="0 0 3000.1 2999.6">
  <!-- Generator: Adobe Illustrator 30.4.0, SVG Export Plug-In . SVG Version: 2.1.4 Build 226)  -->
  <path d="M3000.1,1515.5v-15.8h-.1v-15.7l-.2.2-44.2-44.2,44.3-44.2.2.2v-31l-.2.2-99.1-99.1v-26.6l99.1-99.1.2.2v-30.7l-.2-.2-98.9,98.9v-344l98.9-98.9.2.2v-31.8l-.2.2-98.9-98.9v-344.4l98.9,98.9.2-.2v-30.7l-.2.2-99.1-99.1v-26.6l99.1-99.1.2.2v-31l-.2.2-44.1-44.1,44-44.1.2.2V0h-15.8,0c0,0-44,44.1-44,44.1L2896.1,0h-30.9l-99.2,99.2h-26.2L2640.6,0h-30.7l99,98.9h-344.4L2265.7,0h0C2265.7,0,2234.9,0,2234.9,0h0c0,0-98.9,98.9-98.9,98.9h-344.4L1890.7,0h-30.7l-99.2,99.2h-26.2L1635.5,0h-30.9l-44.1,44.1L1516.4,0h0C1516.5,0,1500,0,1500,0h-15.8,0c0,0-44,44.1-44,44.1L1396.1,0h-30.9l-99.2,99.2h-26.2L1140.6,0h-30.7l99,98.9h-344.4L765.7,0h0C765.7,0,734.9,0,734.9,0h0c0,0-98.9,98.9-98.9,98.9h-344.4L390.7,0h-30.7l-99.2,99.2h-26.2L135.5,0h-30.9l-44.1,44.1L16.4,0h0C16.5,0,0,0,0,0v16.5l.8-.8,44.1,44.1L.8,103.7,0,102.9v32.3l.8-.8,99.1,99.1v26.6L.8,359.2l-.8-.8v30.7l.8.8,98.9-98.9v344.4L.8,734.2l-.8-.8v33.1l.8-.8,98.9,98.9v343.9L.8,1109.6l-.8.8v30.7l.8-.8,99.1,99.1v26.6L.8,1365.1l-.8-.8v32.3l.8-.8,44.2,44.2L.8,1484.2l-.8-.8v16.6h.1v16.1l.8-.8,44.1,44.1L1,1603.4l-.8-.8v32.3l.8-.8,99.1,99.1v26.6L1,1858.9l-.8-.8v30.7l.8.8,98.9-98.9v344.4L1,2233.9l-.8-.8v33.1l.8-.8,98.9,98.9v343.9L1,2609.3l-.8.8v30.7l.8-.8,99.1,99.1v26.6L1,2864.7l-.8-.8v32.3l.8-.8,44.2,44.2-44.2,44.2-.8-.8v16.6h16.6l-.2-.2,44.3-44.3,44.1,44.1-.4.4h31.5l-.4-.4,98.9-98.9h27l98.9,98.9-.4.4h30.7l.4-.4-98.7-98.7h344l98.9,98.9-.2.2h31.1l-.2-.2,98.9-98.9h344l-98.7,98.7.4.4h30.7l-.4-.4,98.9-98.9h27l98.9,98.9-.4.4h31.5l-.4-.4,44.1-44,44.2,44.2-.2.2h32.5l-.2-.2,44.3-44.3,44.1,44.1-.4.4h31.5l-.4-.4,98.9-98.9h27l98.9,98.9-.4.4h30.7l.4-.4-98.7-98.7h344l98.9,98.9-.2.2h31.1l-.2-.2,98.9-98.9h344l-98.7,98.7.4.4h30.7l-.4-.4,98.9-98.9h27l98.9,98.9-.4.4h31.5l-.4-.4,44.1-44,44.2,44.2-.2.2h15.9v-16l-.2.2-44.2-44.2,44.3-44.2.2.2v-31l-.2.2-99.1-99.1v-26.6l99.1-99.1.2.2v-30.7l-.2-.2-98.9,98.9v-344l98.9-98.9.2.2v-31.8l-.2.2-98.9-98.9v-344.4l98.9,98.9.2-.2v-30.7l-.2.2-99.1-99.1v-26.6l99.1-99.1.2.2v-31l-.2.2-44.1-44.1,44-44.1.2.2ZM2984.5,1380.4l-44.2,44.3-39.5-39.5v-88.5l83.8,83.8ZM2640.6,1874.6l99.1-99.1h139.6v353.2h-133.5v-148.8l-105.2-105.2ZM1615.2,2348.8l-99.2-99.2,99.2-99.2h161.5v-161.5l37-36.9,129.5,129.6v338.1l-128.7,128.7-37.8-37.8v-161.5h-161.5ZM135.4,1499.6l98.9-98.9h27l98.9,98.9-.4.4h0l-98.9,98.9h-26.2l-99.2-99.2h-.2ZM360.1,1124.9l-98.9,98.9H121.4v-352.9h133.5v148.8l105.2,105.2ZM1385.6,650.7l99.2,99.2-99.2,99.2h-161.5v161.5l-40.5,40.5-130.4-130.4v-340l131.2-131.2,39.6,39.6v161.5h161.5ZM1500.8,134.4l99.1,99.1v26.6l-99.1,99.1-.8-.8v.7l-.2.2-99.1-99.1v-26.6l99.1-99.1.2.2v.7l.8-.8ZM2739.4,1223.8l-98.9-98.9,105.2-105.2v-148.8h133.5v352.9h-139.9ZM2878.8,1245.7v132.9h-133.1v-132.9h133.1ZM2610.2,1500h.1l98.7,98.6h-344.4l-98.9-98.9h0c0,0,0,0,0,0l98.8-98.8h344l-98.7,98.7.4.4ZM2724.2,1620.3v139.7l-99.1,99.1-105.2-105.2h-148.8v-133.5h353.2ZM1499.9,2609.3l-98.9,98.9v-344l98.9-98.9.2.2v.6l.8-.8,98.9,98.9v343.9l-98.9-98.9-.8.8v-.7l-.2-.2ZM1500.1,2233.1v.6l-.2.2-98.9-98.9v-344.4l98.9,98.9.2-.2v-.7l.8.8,98.9-98.9v344.4l-98.9,98.9-.8-.8ZM1501,1858.9l-.8-.8v.7l-.2.2-99.1-99.1v-26.6l99.1-99.1.2.2v.7l.8-.8,99.1,99.1v26.6l-99.1,99.1ZM1140.6,1874.6l99.1-99.1h139.6v353.2h-133.5v-148.8l-105.2-105.2ZM965,2261.3l-34.3,34.3v-34.3h34.3ZM930.7,2239.6v-34.3l34.3,34.3h-34.3ZM930.7,2174.7v-107.2h-107.2l-64.9-65v-36h162.6l110.4,110.4v162.6h-35.9l-65-64.9ZM758.6,2411.7v-135.1l95.5,95.5-39.6,39.6h-56ZM792.9,2433.4l-34.3,34.3v-34.3h34.3ZM814.6,2089.2l39.6,39.6-95.5,95.5v-135.1h56ZM758.6,2067.5v-34.3l34.3,34.3h-34.3ZM909,2347.9v63.8h-63.8l63.8-63.8ZM869.5,2356.8l-95.5-95.5h135.1v56l-39.6,39.6ZM774,2239.6l95.5-95.5,39.6,39.6v56h-135.1ZM845.3,2089.2h63.8v63.8l-63.8-63.8ZM939.8,1954.5l125-125,60.2,60.3,44.2,44.2-125,125-104.4-104.4ZM291.8,1598.6l98.9-98.9h-.1,0c0,0-98.7-98.8-98.7-98.8h344l98.9,98.9-.2.2h0l-98.6,98.6h-344.4ZM629.9,1620.3v133.5h-148.8l-105.2,105.2-99.1-99.1v-139.7h353.2ZM276.6,1379.2v-139.6l99.1-99.1,105.2,105.2h148.8v133.5h-353.2ZM765.8,1499.7h0c0,0,0,0,0,0l98.8-98.8h344l-98.7,98.7.4.4h.1l98.7,98.6h-344.4l-98.9-98.9ZM1500,765.8v.6l.8-.8,98.9,98.9v343.9l-98.9-98.9-.8.8v-.7l-.2-.2-98.9,98.9v-344l98.9-98.9.2.2ZM1400.9,635.4v-344.4l98.9,98.9.2-.2v-.7l.8.8,98.9-98.9v344.4l-98.9,98.9-.8-.8v.6l-.2.2-98.9-98.9ZM1499.8,1140.3l.2.2v.7l.8-.8,99.1,99.1v26.6l-99.1,99.1-.8-.8v.7l-.2.2-99.1-99.1v-26.6l99.1-99.1ZM1860.1,1124.9l-98.9,98.9h-139.8v-352.9h133.5v148.8l105.2,105.2ZM2064.7,761.6v34.3l-34.3-34.3h34.3ZM2030.5,740l34.3-34.3v34.3h-34.3ZM2064.7,826.6v107.2h107.2l65,65v34.9h-161.7l-110.4-110.4v-161.6h35l65,65ZM2236.8,589.6v135.1l-95.5-95.5,39.6-39.6h56ZM2202.6,567.9l34.3-34.3v34.3h-34.3ZM2180.9,912.1l-39.6-39.6,95.5-95.5v135.1h-56ZM2236.8,933.8v34.3l-34.3-34.3h34.3ZM2086.4,653.3v-63.8h63.8l-63.8,63.8ZM2126,644.4l95.5,95.5h-135.1v-56l39.6-39.6ZM2221.5,761.6l-95.5,95.5-39.6-39.6v-56h135.1ZM2150.2,912.1h-63.8v-63.8l63.8,63.8ZM2056.7,1045.8l-121,121-104.4-104.4,121-121,104.4,104.4ZM1859.8,1500l-98.9,98.9h-26.2l-99.2-99.2h-.2c0,0,98.9-99,98.9-99h27l98.9,98.9-.4.4h0ZM1755,1620.5v133.1h-133.1v-133.1h133.1ZM1239.9,1598.8l-99.2-99.2h-.2c0,0,98.9-99,98.9-99h27l98.9,98.9-.4.4h.1l-98.9,98.9h-26.2ZM1378.9,1620.5v133.1h-133.1v-133.1h133.1ZM1245.7,1378.6v-132.9h133.1v132.9h-133.1ZM1396.2,1499.7h-.2c0,0,44.1-44.1,44.1-44.1l44.2,44.2-.2.2h0l-43.8,43.8-44.2-44.1ZM1500.8,1395.7l44.2,44.2-44.2,44.2-.8-.8v.6l-.2.2-44.2-44.2,44.3-44.2.2.2v.7l.8-.8ZM1516.2,1380.4l83.7-83.7v88.5l-39.5,39.5-44.2-44.2ZM1440.5,1574.7l44.1,44.1-83.8,83.8v-88.1l39.7-39.7ZM1455.9,1559.3l44-44.1.2.2v.6l.8-.8,44.1,44.1-44.1,44.1-.8-.8v.7l-.2.2-44.1-44.1ZM1516.5,1499.7h0c0,0,0,0,0,0l44.1-44.1,44.1,44.1-.4.4h0l-43.8,43.8-44.1-44.1ZM1621.8,1378.6v-132.9h133.1v132.9h-133.1ZM1980.9,1245.7h148.8v133.5h-353.2v-139.6l99.1-99.1,105.2,105.2ZM1703.6,1400.7l-83.6,83.6-44.1-44.1,39.5-39.5h88.1ZM1484.5,1380.4l-44.2,44.3-39.5-39.5v-88.5l83.8,83.8ZM1424.7,1440.2l-44,44.1-83.6-83.6h88.1l39.5,39.5ZM1379.2,1223.8h-139.9l-98.9-98.9,105.2-105.2v-148.8h133.5v352.9ZM1124.9,1109.8l-61.1,61.1-124.6-124.6,104.4-104.4,124.6,124.7-43.3,43.3ZM1124.9,1140.5l99.1,99.1v139.6h-353.2v-133.5h148.8l105.2-105.2ZM871,1620.3h353.2v139.7l-99.1,99.1-105.2-105.2h-148.8v-133.5ZM1296.8,1598.8l84-84,44.2,44.2-39.7,39.7h-88.5ZM1516.3,1618.7l44-44.1,39.7,39.7v88.1l-83.7-83.7ZM1575.9,1559.1l44.2-44.3,84,84h-88.5l-39.7-39.7ZM1621.5,1775.5h139.6l99.1,99.1-105.2,105.2v148.8h-133.5v-353.2ZM1875.8,1889.7l15.1-15.1,42.5-42.5,122.9,122.8-104.4,104.4-122.9-122.8,46.8-46.8ZM1875.8,1859l-99.1-99.1v-139.7h353.2v133.5h-148.8l-105.2,105.2ZM1791.8,1598.6l98.9-98.9h0,0c0,0-98.7-98.8-98.7-98.8h344l98.9,98.9-.2.2h0l-98.6,98.6h-344.4ZM2370.9,1379.2v-133.5h148.8l105.2-105.2,99.1,99.1v139.6h-353.2ZM2624.9,1109.8l-61.1,61.1-124.6-124.6,104.4-104.4,124.6,124.7-43.3,43.3ZM2439.7,454.8l125-125,60.2,60.3,44.2,44.2-125,125-104.4-104.4ZM2531.5,577.3v162.6h-35.9l-65-64.9v-107.2h-107.2l-64.9-65v-36h162.6l110.4,110.4ZM2464.9,761.6l-34.3,34.3v-34.3h34.3ZM2430.6,740v-34.3l34.3,34.3h-34.3ZM2369.4,857.2l-95.5-95.5h135.1v56l-39.6,39.6ZM2408.9,848.3v63.8h-63.8l63.8-63.8ZM2273.8,740l95.5-95.5,39.6,39.6v56h-135.1ZM2345.1,589.6h63.8v63.8l-63.8-63.8ZM2292.8,567.9h-34.3v-34.3l34.3,34.3ZM2314.5,589.6l39.6,39.6-95.5,95.5v-135.1h56ZM2354,872.5l-39.6,39.6h-56v-135.1l95.5,95.5ZM2292.8,933.8l-34.3,34.3v-34.3h34.3ZM2323.5,933.8h107.2v-107.2l65-65h35.9v161.6l-110.4,110.4h-162.6v-34.9l64.9-65ZM2417.6,1055.3l130.9,130.9-37.7,37.7h-161.5v161.5l-98.9,98.9-98.9-98.9v-161.5h-161.5l-40.4-40.4,128.3-128.3h339.8ZM2236.8,502.9l-65,65h-107.2v107.2l-64.9,64.9h-35v-162.6l110.4-110.4h161.7v36ZM1951.7,559.7l-122.9-122.8,46.8-46.8,15.1-15.1,42.5-42.5,122.9,122.8-104.4,104.4ZM1943.1,581.7v338.1l-128.7,128.7-37.8-37.8v-161.5h-161.5l-99.2-99.2,99.2-99.2h161.5v-161.5l37-37,129.5,129.6ZM1044.1,559.2l-104.4-104.4,125-125,60.2,60.3,44.2,44.2-125,125ZM1031.5,577.3v162.6h-35.9l-65-64.9v-107.2h-107.2l-64.9-65v-36h162.6l110.4,110.4ZM964.9,761.6l-34.3,34.3v-34.3h34.3ZM930.6,740v-34.3l34.3,34.3h-34.3ZM869.4,857.2l-95.5-95.5h135.1v56l-39.6,39.6ZM908.9,848.3v63.8h-63.8l63.8-63.8ZM773.8,740l95.5-95.5,39.6,39.6v56h-135.1ZM845.1,589.6h63.8v63.8l-63.8-63.8ZM792.8,567.9h-34.3v-34.3l34.3,34.3ZM814.5,589.6l39.6,39.6-95.5,95.5v-135.1h56ZM854,872.5l-39.6,39.6h-56v-135.1l95.5,95.5ZM792.8,933.8l-34.3,34.3v-34.3h34.3ZM823.5,933.8h107.2v-107.2l65-65h35.9v161.6l-110.4,110.4h-162.6v-34.9l64.9-65ZM917.6,1055.3l130.9,130.9-37.7,37.7h-161.5v161.5l-98.9,98.9-98.9-98.9v-161.5h-161.5l-40.4-40.4,128.3-128.3h339.8ZM564.7,761.6v34.3l-34.3-34.3h34.3ZM530.5,740l34.3-34.3v34.3h-34.3ZM564.7,826.6v107.2h107.2l65,65v34.9h-161.7l-110.4-110.4v-161.6h35l65,65ZM736.8,589.6v135.1l-95.5-95.5,39.6-39.6h56ZM702.6,567.9l34.3-34.3v34.3h-34.3ZM680.9,912.1l-39.6-39.6,95.5-95.5v135.1h-56ZM736.8,933.8v34.3l-34.3-34.3h34.3ZM586.4,653.3v-63.8h63.8l-63.8,63.8ZM626,644.4l95.5,95.5h-135.1v-56l39.6-39.6ZM721.5,761.6l-95.5,95.5-39.6-39.6v-56h135.1ZM650.2,912.1h-63.8v-63.8l63.8,63.8ZM736.8,502.9l-65,65h-107.2v107.2l-64.9,64.9h-35v-162.6l110.4-110.4h161.7v36ZM451.7,559.7l-122.9-122.8,46.8-46.8,15.1-15.1,42.5-42.5,122.9,122.8-104.4,104.4ZM452.2,941.4l104.4,104.4-121,121-104.4-104.4,121-121ZM121.8,1245.7h133.1v132.9H121.8v-132.9ZM255,1620.5v133.1H121.9v-133.1h133.1ZM204.1,1598.8h-88.5l-39.7-39.7,44.2-44.3,84,84ZM121.5,1775.5h139.6l99.1,99.1-105.2,105.2v148.8H121.5v-353.2ZM375.8,1889.7l15.1-15.1,42.5-42.5,122.9,122.8-104.4,104.4-122.9-122.8,46.8-46.8ZM452.4,2441.1l104.4,104.4-121,121-104.4-104.4,121-121ZM464.9,2422.9v-161.6h35l65,65v107.2h107.2l65,65v34.9h-161.7l-110.4-110.4ZM564.8,2261.3v34.3l-34.3-34.3h34.3ZM530.6,2239.6l34.3-34.3v34.3h-34.3ZM626.1,2144.1l95.5,95.5h-135.1v-56l39.6-39.6ZM586.5,2153v-63.8h63.8l-63.8,63.8ZM721.6,2261.3l-95.5,95.5-39.6-39.6v-56h135.1ZM650.3,2411.7h-63.8v-63.8l63.8,63.8ZM702.7,2433.4h34.3v34.3l-34.3-34.3ZM681,2411.7l-39.6-39.6,95.5-95.5v135.1h-56ZM641.4,2128.8l39.6-39.6h56v135.1l-95.5-95.5ZM702.7,2067.5l34.3-34.3v34.3h-34.3ZM672,2067.5h-107.2v107.2l-64.9,64.9h-35v-162.6l110.4-110.4h161.7v36l-65,65ZM576.9,1944.9l-128.1-128.1,41.3-41.3h161.5v-161.5l98.9-98.9,98.9,98.9v161.5h161.5l38.6,38.6-130.8,130.8h-341.8ZM758.6,2498.4l64.9-65h107.2v-107.2l65-65h35.9v161.6l-110.4,110.4h-162.6v-34.9ZM1043.7,2441.5l124.6,124.7-43.3,43.3-61.1,61.1-124.6-124.6,104.4-104.4ZM1053.3,2420.5v-340l131.2-131.2,39.6,39.6v161.5h161.5l99.2,99.2-99.2,99.2h-161.5v161.5l-40.5,40.5-130.4-130.4ZM1400.8,2739l99.1-99.1.2.2v.7l.8-.8,99.1,99.1v26.6l-99.1,99.1-.8-.8v.7l-.2.2-99.1-99.1v-26.6ZM1952.4,2441.1l104.4,104.4-121,121-104.4-104.4,121-121ZM1964.9,2422.9v-161.6h35l65,65v107.2h107.2l65,65v34.9h-161.7l-110.4-110.4ZM2064.8,2261.3v34.3l-34.3-34.3h34.3ZM2030.6,2239.6l34.3-34.3v34.3h-34.3ZM2126.1,2144.1l95.5,95.5h-135.1v-56l39.6-39.6ZM2086.5,2153v-63.8h63.8l-63.8,63.8ZM2221.6,2261.3l-95.5,95.5-39.6-39.6v-56h135.1ZM2150.3,2411.7h-63.8v-63.8l63.8,63.8ZM2202.7,2433.4h34.3v34.3l-34.3-34.3ZM2181,2411.7l-39.6-39.6,95.5-95.5v135.1h-56ZM2141.4,2128.8l39.6-39.6h56v135.1l-95.5-95.5ZM2202.7,2067.5l34.3-34.3v34.3h-34.3ZM2172,2067.5h-107.2v107.2l-64.9,64.9h-35v-162.6l110.4-110.4h161.7v36l-65,65ZM2076.9,1944.9l-128.1-128.1,41.3-41.3h161.5v-161.5l98.9-98.9,98.9,98.9v161.5h161.5l38.6,38.6-130.8,130.8h-341.8ZM2465,2261.3l-34.3,34.3v-34.3h34.3ZM2430.7,2239.6v-34.3l34.3,34.3h-34.3ZM2430.7,2174.7v-107.2h-107.2l-64.9-65v-36h162.6l110.4,110.4v162.6h-35.9l-65-64.9ZM2258.6,2411.7v-135.1l95.5,95.5-39.6,39.6h-56ZM2292.9,2433.4l-34.3,34.3v-34.3h34.3ZM2314.6,2089.2l39.6,39.6-95.5,95.5v-135.1h56ZM2258.6,2067.5v-34.3l34.3,34.3h-34.3ZM2409,2347.9v63.8h-63.8l63.8-63.8ZM2369.5,2356.8l-95.5-95.5h135.1v56l-39.6,39.6ZM2274,2239.6l95.5-95.5,39.6,39.6v56h-135.1ZM2345.3,2089.2h63.8v63.8l-63.8-63.8ZM2258.6,2498.4l64.9-65h107.2v-107.2l65-65h35.9v161.6l-110.4,110.4h-162.6v-34.9ZM2543.7,2441.5l124.6,124.7-43.3,43.3-61.1,61.1-124.6-124.6,104.4-104.4ZM2439.8,1954.5l125-125,60.2,60.3,44.2,44.2-125,125-104.4-104.4ZM2878.9,1753.6h-133.1v-133.1h133.1v133.1ZM2739.9,1598.8l-99.2-99.2h-.2c0,0,98.9-99,98.9-99h27l98.9,98.9-.4.4h.1l-98.9,98.9h-26.2ZM2797.1,1400.7h88.1l39.5,39.5-44,44.1-83.6-83.6ZM2984.8,749.9l-99.2,99.2h-161.5v161.5l-40.5,40.5-130.4-130.4v-340l131.2-131.2,39.6,39.6v161.5h161.5l99.2,99.2ZM2940.4,75l44.1,44.1-83.8,83.8v-88.1l39.7-39.7ZM2880.6,15.2l44.2,44.2-39.7,39.7h-88.5l84-84ZM2745.7,120.9h133.1v133.1h-133.1V120.9ZM2879.2,275.8v353.2h-133.5v-148.8l-105.2-105.2,99.1-99.1h139.6ZM2370.9,120.6h353.2v139.7l-99.1,99.1-105.2-105.2h-148.8V120.6ZM2151.4,275.8V114.3l98.9-98.9,98.9,98.9v161.5h161.5l38.6,38.6-130.8,130.8h-341.8l-128.1-128.1,41.3-41.3h161.5ZM1776.6,120.6h353.2v133.5h-148.8l-105.2,105.2-99.1-99.1V120.6ZM1761,275.8l99.1,99.1-105.2,105.2v148.8h-133.5v-353.2h139.6ZM1754.9,120.9v133.1h-133.1V120.9h133.1ZM1620,15.2l84,84h-88.5l-39.7-39.7,44.2-44.3ZM1599.9,114.7v88.1l-83.7-83.7,44-44.1,39.7,39.7ZM1499.8,15.6l.2.2v.6l.8-.8,44.1,44.1-44.1,44.1-.8-.8v.7l-.2.2-44.1-44.1,44-44.1ZM1440.4,75l44.1,44.1-83.8,83.8v-88.1l39.7-39.7ZM1380.6,15.2l44.2,44.2-39.7,39.7h-88.5l84-84ZM1245.7,120.9h133.1v133.1h-133.1V120.9ZM1379.2,275.8v353.2h-133.5v-148.8l-105.2-105.2,99.1-99.1h139.6ZM870.9,120.6h353.2v139.7l-99.1,99.1-105.2-105.2h-148.8V120.6ZM651.4,275.8V114.3l98.9-98.9,98.9,98.9v161.5h161.5l38.6,38.6-130.8,130.8h-341.8l-128.1-128.1,41.3-41.3h161.5ZM276.6,120.6h353.2v133.5h-148.8l-105.2,105.2-99.1-99.1V120.6ZM261,275.8l99.1,99.1-105.2,105.2v148.8H121.4v-353.2h139.6ZM254.9,120.9v133.1H121.8V120.9h133.1ZM120,15.2l84,84h-88.5l-39.7-39.7L120,15.2ZM16.2,119.1l44-44.1,39.7,39.7v88.1L16.2,119.1ZM15.8,749.9l99.2-99.2h161.5v-161.5l37-37,129.5,129.6v338.1l-128.7,128.7-37.8-37.8v-161.5H115.1l-99.2-99.2ZM115.5,1400.7h88.1l-83.6,83.6-44.1-44.1,39.5-39.5ZM16.2,1380.4l83.7-83.7v88.5l-39.5,39.5-44.2-44.2ZM16.5,1499.7h0c0,0,0,0,0,0l44.1-44.1,44.1,44.1-.4.4h0l-43.8,43.8-44.1-44.1ZM16.3,1618.7l44-44.1,39.7,39.7v88.1l-83.7-83.7ZM15.9,2249.6l99.2-99.2h161.5v-161.5l37-36.9,129.5,129.6v338.1l-128.7,128.7-37.8-37.8v-161.5H115.2l-99.2-99.2ZM60.5,2924.3l-44.2-44.2,83.7-83.7v88.5l-39.5,39.5ZM120.1,2983.9l-44.1-44.1,39.5-39.5h88.1l-83.6,83.6ZM255,2878.2H121.9v-132.9h133.1v132.9ZM121.5,2723.5v-352.9h133.5v148.8l105.2,105.2-98.9,98.9H121.5ZM629.9,2878.9h-353.2v-139.6l99.1-99.1,105.2,105.2h148.8v133.5ZM849.3,2723.7v161.5l-98.9,98.9-98.9-98.9v-161.5h-161.5l-40.4-40.4,128.3-128.3h339.8l130.9,130.9-37.7,37.7h-161.5ZM1224.2,2878.9h-353.2v-133.5h148.8l105.2-105.2,99.1,99.1v139.6ZM1239.5,2723.5l-98.9-98.9,105.2-105.2v-148.8h133.5v352.9h-139.9ZM1245.9,2878.2v-132.9h133.1v132.9h-133.1ZM1380.8,2983.9l-83.6-83.6h88.1l39.5,39.5-44,44.1ZM1400.8,2884.8v-88.5l83.8,83.8-44.2,44.3-39.5-39.5ZM1501,2983.9l-.8-.8v.6l-.2.2-44.2-44.2,44.3-44.2.2.2v.7l.8-.8,44.2,44.2-44.2,44.2ZM1560.5,2924.3l-44.2-44.2,83.7-83.7v88.5l-39.5,39.5ZM1620.1,2983.9l-44.1-44.1,39.5-39.5h88.1l-83.6,83.6ZM1755,2878.2h-133.1v-132.9h133.1v132.9ZM1621.5,2723.5v-352.9h133.5v148.8l105.2,105.2-98.9,98.9h-139.8ZM2129.9,2878.9h-353.2v-139.6l99.1-99.1,105.2,105.2h148.8v133.5ZM2349.3,2723.7v161.5l-98.9,98.9-98.9-98.9v-161.5h-161.5l-40.4-40.4,128.3-128.3h339.8l130.9,130.9-37.7,37.7h-161.5ZM2724.2,2878.9h-353.2v-133.5h148.8l105.2-105.2,99.1,99.1v139.6ZM2739.5,2723.5l-98.9-98.9,105.2-105.2v-148.8h133.5v352.9h-139.9ZM2745.9,2878.2v-132.9h133.1v132.9h-133.1ZM2880.8,2983.9l-83.6-83.6h88.1l39.5,39.5-44,44.1ZM2984.6,2880l-44.2,44.3-39.5-39.5v-88.5l83.8,83.8ZM2984.9,2249.6l-99.2,99.2h-161.5v161.5l-40.5,40.5-130.4-130.4v-340l131.2-131.2,39.6,39.6v161.5h161.5l99.2,99.2ZM2885.3,1598.8h-88.5l84-84,44.2,44.2-39.7,39.7ZM2984.6,1618.7l-83.8,83.8v-88.1l39.7-39.7,44.1,44.1ZM2940.3,1543.8l-44.2-44.1h-.2c0,0,44.1-44.1,44.1-44.1l44.2,44.2-.2.2h0l-43.8,43.8Z"/>
</svg>